<?xml version="1.0" ?><!DOCTYPE svg  PUBLIC '-//W3C//DTD SVG 1.1//EN'  'http://www.w3.org/Graphics/SVG/1.1/DTD/svg11.dtd'><svg enable-background="new 0 0 512 512" height="512px" id="Layer_1" version="1.1" viewBox="0 0 512 512" width="512px" xml:space="preserve" xmlns="http://www.w3.org/2000/svg" xmlns:xlink="http://www.w3.org/1999/xlink"><path d="M349.959,203.608c-5.998-62.967-61.932-112.316-130.038-112.316c-72.114,0-130.567,55.305-130.567,123.543  c0,6.617,0.551,13.117,1.61,19.445l0,0c-45.345,5.346-80.561,44.914-80.561,92.914c0,51.639,40.775,93.514,91.075,93.514h333.857  c36.605,0,66.26-26.482,66.26-59.162c0-29.539-24.246-54.033-55.943-58.449l0,0c0-51.656-40.582-99.615-90.883-99.615  C353.156,203.481,351.541,203.524,349.959,203.608" fill="#D8EAEF"/><path d="M301.094,203.608c-5.135-62.967-52.466-113.32-110.624-109.16c-36.581,2.615-101.115,52.148-101.115,120.387  c0,6.617,1.61,19.445,1.61,19.445c-42.076,3.783-80.561,44.914-80.561,92.914c0,51.639,34.907,93.514,77.968,93.514h285.81  c31.34,0,56.727-26.482,56.727-59.162c0-29.539-20.756-54.033-47.893-58.449l0,0c0-51.656-34.742-99.615-77.805-99.615  C303.83,203.481,302.447,203.524,301.094,203.608c-22.807,1.434-43.016,14.605-56.506,34.576" fill="#FFFFFF"/><path d="  M435.336,420.708c36.605,0,66.26-26.482,66.26-59.162c0-29.539-24.246-54.033-55.943-58.449l0,0  c0-51.656-45.395-99.488-95.693-99.488c-1.615,0,1.582-0.084,0,0c-26.641,1.434-50.246,14.605-66.006,34.576" fill="none" stroke="#354F65" stroke-linecap="round" stroke-linejoin="round" stroke-miterlimit="10" stroke-width="13"/><path d="  M349.959,203.608c-5.998-62.967-61.932-112.316-130.038-112.316c-72.114,0-130.567,55.305-130.567,123.543  c0,6.617,0.551,13.117,1.61,19.445l0,0c-45.345,5.346-80.561,44.914-80.561,92.914c0,51.639,40.775,93.514,91.075,93.514h333.857" fill="none" stroke="#354F65" stroke-linecap="round" stroke-linejoin="round" stroke-miterlimit="10" stroke-width="13"/></svg>