<?xml version="1.0" ?><!DOCTYPE svg  PUBLIC '-//W3C//DTD SVG 1.1//EN'  'http://www.w3.org/Graphics/SVG/1.1/DTD/svg11.dtd'><svg enable-background="new 0 0 512 512" height="512px" id="Layer_1" version="1.1" viewBox="0 0 512 512" width="512px" xml:space="preserve" xmlns="http://www.w3.org/2000/svg" xmlns:xlink="http://www.w3.org/1999/xlink"><path d="M349.959,157.938C343.962,94.97,288.028,45.621,219.921,45.621c-72.114,0-130.567,55.304-130.567,123.542  c0,6.617,0.551,13.119,1.61,19.447l0,0c-45.345,5.346-80.561,44.912-80.561,92.913c0,51.638,40.775,93.513,91.075,93.513  l119.178-17.509l214.68,17.509c36.605,0,66.261-26.481,66.261-59.162c0-29.539-24.246-54.032-55.944-58.448l0,0  c0-51.657-40.582-99.616-90.882-99.616C353.156,157.81,351.541,157.854,349.959,157.938" fill="#D8EAEF"/><path d="M301.095,157.938C295.96,94.97,248.628,44.617,190.47,48.776c-36.581,2.616-101.115,52.148-101.115,120.387  c0,6.617,1.61,19.447,1.61,19.447c-42.076,3.782-80.561,44.912-80.561,92.913c0,51.638,34.907,93.513,77.968,93.513h285.811  c31.34,0,56.727-26.481,56.727-59.162c0-29.539-20.756-54.032-47.893-58.448l0,0c0-51.657-34.743-99.616-77.805-99.616  C303.831,157.81,302.448,157.854,301.095,157.938c-22.808,1.433-43.016,14.604-56.507,34.575" fill="#FFFFFF"/><path d="  M371.056,375.036h64.28c36.605,0,66.261-26.481,66.261-59.162c0-29.539-24.246-54.032-55.944-58.448l0,0  c0-51.657-45.394-99.488-95.693-99.488c-1.614,0,1.582-0.084,0,0c-26.641,1.433-50.246,14.604-66.005,34.575" fill="none" stroke="#354F65" stroke-linecap="round" stroke-linejoin="round" stroke-miterlimit="10" stroke-width="13"/><path d="  M349.959,157.938C343.962,94.97,288.028,45.621,219.921,45.621c-72.114,0-130.567,55.304-130.567,123.542  c0,6.617,0.551,13.119,1.61,19.447l0,0c-45.345,5.346-80.561,44.912-80.561,92.913c0,51.638,40.775,93.513,91.075,93.513h28.91" fill="none" stroke="#354F65" stroke-linecap="round" stroke-linejoin="round" stroke-miterlimit="10" stroke-width="13"/><g><path d="   M161.106,374.597h87.499c14.504,0,26.262-11.758,26.262-26.262s-11.758-26.262-26.262-26.262s-26.261,11.758-26.261,26.262" fill="none" stroke="#354F65" stroke-linecap="round" stroke-linejoin="round" stroke-miterlimit="10" stroke-width="13"/><path d="   M120.638,401.416h199.02c12.12,0,21.945-9.825,21.945-21.944s-9.825-21.944-21.945-21.944c-12.119,0-21.943,9.825-21.943,21.944" fill="none" stroke="#354F65" stroke-linecap="round" stroke-linejoin="round" stroke-miterlimit="10" stroke-width="13"/><path d="   M136.773,427.606h141.326c10.707,0,19.387,8.679,19.387,19.387c0,10.706-8.68,19.386-19.387,19.386s-19.387-8.68-19.387-19.386" fill="none" stroke="#354F65" stroke-linecap="round" stroke-linejoin="round" stroke-miterlimit="10" stroke-width="13"/></g></svg>