<?xml version="1.0" ?><!DOCTYPE svg  PUBLIC '-//W3C//DTD SVG 1.1//EN'  'http://www.w3.org/Graphics/SVG/1.1/DTD/svg11.dtd'><svg enable-background="new 0 0 512 512" height="512px" id="Layer_1" version="1.1" viewBox="0 0 512 512" width="512px" xml:space="preserve" xmlns="http://www.w3.org/2000/svg" xmlns:xlink="http://www.w3.org/1999/xlink"><path d="M349.96,244.083c-5.998-62.967-61.932-112.316-130.038-112.316c-72.114,0-130.567,55.305-130.567,123.543  c0,6.617,0.551,13.119,1.61,19.447l0,0c-45.345,5.346-80.561,44.912-80.561,92.912c0,51.639,40.775,93.514,91.075,93.514h333.858  c36.605,0,66.26-26.482,66.26-59.162c0-29.539-24.246-54.033-55.943-58.449l0,0c0-51.656-40.582-99.615-90.883-99.615  C353.157,243.956,351.542,243.999,349.96,244.083" fill="#D8EAEF"/><path d="M301.095,244.083c-5.135-62.967-52.466-113.32-110.625-109.16c-36.581,2.615-101.115,52.148-101.115,120.387  c0,6.617,1.61,19.447,1.61,19.447c-42.076,3.781-80.561,44.912-80.561,92.912c0,51.639,34.907,93.514,77.968,93.514h285.811  c31.34,0,56.727-26.482,56.727-59.162c0-29.539-20.756-54.033-47.893-58.449l0,0c0-51.656-34.742-99.615-77.805-99.615  C303.831,243.956,302.448,243.999,301.095,244.083c-22.807,1.434-43.016,14.605-56.506,34.576" fill="#FFFFFF"/><path d="  M435.337,461.182c36.605,0,66.26-26.482,66.26-59.162c0-29.539-24.246-54.033-55.943-58.449l0,0  c0-51.656-45.395-99.488-95.693-99.488c-1.615,0,1.582-0.084,0,0c-26.641,1.434-50.246,14.605-66.006,34.576" fill="none" stroke="#354F65" stroke-linecap="round" stroke-linejoin="round" stroke-miterlimit="10" stroke-width="13"/><path d="  M349.96,244.083c-5.998-62.967-61.932-112.316-130.038-112.316c-72.114,0-130.567,55.305-130.567,123.543  c0,6.617,0.551,13.119,1.61,19.447l0,0c-45.345,5.346-80.561,44.912-80.561,92.912c0,51.639,40.775,93.514,91.075,93.514h333.858" fill="none" stroke="#354F65" stroke-linecap="round" stroke-linejoin="round" stroke-miterlimit="10" stroke-width="13"/><path d="  M302.468,121.677c11.436-5.185,24.136-8.072,37.51-8.072c50.22,0,90.932,40.712,90.932,90.932c0,10.913-1.923,21.377-5.447,31.072" fill="none" stroke="#354F65" stroke-linecap="round" stroke-linejoin="round" stroke-miterlimit="10" stroke-width="13"/><line fill="none" stroke="#354F65" stroke-linecap="round" stroke-linejoin="round" stroke-miterlimit="10" stroke-width="13" x1="341.001" x2="341.001" y1="50.818" y2="86.788"/><line fill="none" stroke="#354F65" stroke-linecap="round" stroke-linejoin="round" stroke-miterlimit="10" stroke-width="13" x1="492.318" x2="456.35" y1="204.538" y2="204.538"/><line fill="none" stroke="#354F65" stroke-linecap="round" stroke-linejoin="round" stroke-miterlimit="10" stroke-width="13" x1="448.054" x2="422.62" y1="96.162" y2="121.595"/></svg>