<?xml version="1.0" ?><!DOCTYPE svg  PUBLIC '-//W3C//DTD SVG 1.1//EN'  'http://www.w3.org/Graphics/SVG/1.1/DTD/svg11.dtd'><svg enable-background="new 0 0 512 512" height="512px" id="Layer_1" version="1.1" viewBox="0 0 512 512" width="512px" xml:space="preserve" xmlns="http://www.w3.org/2000/svg" xmlns:xlink="http://www.w3.org/1999/xlink"><path d="M349.959,141.451c-5.997-62.967-61.931-112.316-130.038-112.316c-72.114,0-130.567,55.304-130.567,123.543  c0,6.617,0.551,13.117,1.61,19.445l0,0c-45.345,5.346-80.561,44.913-80.561,92.914c0,51.638,40.775,93.513,91.075,93.513  L235.5,341.511l199.836,17.039c36.605,0,66.261-26.481,66.261-59.162c0-29.539-24.246-54.032-55.944-58.448l0,0  c0-51.656-40.582-99.615-90.882-99.615C353.156,141.324,351.541,141.367,349.959,141.451" fill="#D8EAEF"/><path d="M301.095,141.451C295.96,78.484,248.628,28.131,190.47,32.29C153.889,34.906,89.354,84.438,89.354,152.678  c0,6.617,1.61,19.445,1.61,19.445c-42.076,3.783-80.561,44.913-80.561,92.914c0,51.638,34.907,93.513,77.968,93.513h285.811  c31.34,0,56.727-26.481,56.727-59.162c0-29.539-20.756-54.032-47.893-58.448l0,0c0-51.656-34.743-99.615-77.805-99.615  C303.831,141.324,302.448,141.367,301.095,141.451c-22.808,1.434-43.016,14.604-56.507,34.575" fill="#FFFFFF"/><path d="  M365.5,358.55h69.836c36.605,0,66.261-26.481,66.261-59.162c0-29.539-24.246-54.032-55.944-58.448l0,0  c0-51.656-45.394-99.488-95.693-99.488c-1.614,0,1.582-0.084,0,0c-26.641,1.434-50.246,14.604-66.005,34.575" fill="none" stroke="#354F65" stroke-linecap="round" stroke-linejoin="round" stroke-miterlimit="10" stroke-width="13"/><line fill="none" stroke="#354F65" stroke-linecap="round" stroke-linejoin="round" stroke-miterlimit="10" stroke-width="13" x1="188" x2="308" y1="358.55" y2="358.55"/><path d="  M349.959,141.451c-5.997-62.967-61.931-112.316-130.038-112.316c-72.114,0-130.567,55.304-130.567,123.543  c0,6.617,0.551,13.117,1.61,19.445l0,0c-45.345,5.346-80.561,44.913-80.561,92.914c0,51.638,40.775,93.513,91.075,93.513H131.5" fill="none" stroke="#354F65" stroke-linecap="round" stroke-linejoin="round" stroke-miterlimit="10" stroke-width="13"/><g><line fill="none" stroke="#354F65" stroke-linecap="round" stroke-linejoin="round" stroke-miterlimit="10" stroke-width="13" x1="177.095" x2="169.419" y1="464.333" y2="482.864"/><line fill="none" stroke="#354F65" stroke-linecap="round" stroke-linejoin="round" stroke-miterlimit="10" stroke-width="13" x1="136.66" x2="118.674" y1="422.148" y2="465.57"/><line fill="none" stroke="#354F65" stroke-linecap="round" stroke-linejoin="round" stroke-miterlimit="10" stroke-width="13" x1="220.077" x2="199.291" y1="360.564" y2="410.748"/><line fill="none" stroke="#354F65" stroke-linecap="round" stroke-linejoin="round" stroke-miterlimit="10" stroke-width="13" x1="162.07" x2="158.856" y1="360.805" y2="368.562"/><line fill="none" stroke="#354F65" stroke-linecap="round" stroke-linejoin="round" stroke-miterlimit="10" stroke-width="13" x1="257.711" x2="239.725" y1="409.51" y2="452.933"/><line fill="none" stroke="#354F65" stroke-linecap="round" stroke-linejoin="round" stroke-miterlimit="10" stroke-width="13" x1="298.146" x2="285.258" y1="451.695" y2="482.811"/><line fill="none" stroke="#354F65" stroke-linecap="round" stroke-linejoin="round" stroke-miterlimit="10" stroke-width="13" x1="335.794" x2="319.576" y1="360.805" y2="399.958"/></g></svg>