<?xml version="1.0" ?><!DOCTYPE svg  PUBLIC '-//W3C//DTD SVG 1.1//EN'  'http://www.w3.org/Graphics/SVG/1.1/DTD/svg11.dtd'><svg enable-background="new 0 0 512 512" height="512px" id="Layer_1" version="1.1" viewBox="0 0 512 512" width="512px" xml:space="preserve" xmlns="http://www.w3.org/2000/svg" xmlns:xlink="http://www.w3.org/1999/xlink"><path d="M349.959,141.958c-5.998-62.967-61.932-112.316-130.038-112.316c-72.114,0-130.567,55.305-130.567,123.543  c0,6.617,0.551,13.118,1.61,19.446l0,0c-45.345,5.346-80.561,44.913-80.561,92.914c0,51.639,40.775,93.514,91.075,93.514L232,343  l203.336,16.059c36.605,0,66.26-26.482,66.26-59.162c0-29.539-24.246-54.034-55.943-58.45l0,0c0-51.656-40.582-99.615-90.883-99.615  C353.156,141.832,351.541,141.875,349.959,141.958" fill="#D8EAEF"/><path d="M301.094,141.958c-5.135-62.967-52.466-113.32-110.625-109.16C153.888,35.414,89.354,84.947,89.354,153.185  c0,6.617,1.61,19.446,1.61,19.446c-42.076,3.782-80.561,44.913-80.561,92.914c0,51.639,34.907,93.514,77.968,93.514h285.811  c31.34,0,56.727-26.482,56.727-59.162c0-29.539-20.756-54.034-47.893-58.45l0,0c0-51.656-34.742-99.615-77.805-99.615  C303.83,141.832,302.447,141.875,301.094,141.958c-22.807,1.434-43.016,14.605-56.506,34.576" fill="#FFFFFF"/><path d="  M435.336,359.059c36.605,0,66.26-26.482,66.26-59.162c0-29.539-24.246-54.034-55.943-58.45l0,0  c0-51.656-45.395-99.488-95.693-99.488c-1.615,0,1.582-0.084,0,0c-26.641,1.434-50.246,14.605-66.006,34.576" fill="none" stroke="#354F65" stroke-linecap="round" stroke-linejoin="round" stroke-miterlimit="10" stroke-width="13"/><path d="  M349.959,141.958c-5.998-62.967-61.932-112.316-130.038-112.316c-72.114,0-130.567,55.305-130.567,123.543  c0,6.617,0.551,13.118,1.61,19.446l0,0c-45.345,5.346-80.561,44.913-80.561,92.914c0,51.639,40.775,93.514,91.075,93.514H141" fill="none" stroke="#354F65" stroke-linecap="round" stroke-linejoin="round" stroke-miterlimit="10" stroke-width="13"/><g><polygon fill="#FFFFFF" points="310.36,343.809 333.672,343.809 291.649,434.99 297.452,370.037 261.602,370.037 287.192,299.729    326.403,299.729  "/><polygon fill="#D8EAEF" points="310.358,343.809 333.669,343.809 291.646,434.99 297.45,370.037 284.686,370.037 311.431,299.729    326.4,299.729  "/><polygon fill="none" points="   310.36,343.811 333.669,343.811 291.648,434.99 297.453,370.037 261.603,370.037 287.189,299.73 326.404,299.729  " stroke="#354F65" stroke-linecap="round" stroke-linejoin="round" stroke-miterlimit="10" stroke-width="11"/><polygon fill="#FFFFFF" points="202.809,391.176 226.119,391.176 184.097,482.357 189.9,417.404 154.049,417.404 179.64,347.096    218.851,347.096  "/><polygon fill="#D8EAEF" points="202.808,391.176 226.119,391.176 184.096,482.357 189.899,417.404 177.135,417.404 203.88,347.096    218.85,347.096  "/><polygon fill="none" points="   202.809,391.176 226.119,391.176 184.097,482.357 189.899,417.404 154.049,417.404 179.639,347.096 218.851,347.096  " stroke="#354F65" stroke-linecap="round" stroke-linejoin="round" stroke-miterlimit="10" stroke-width="11"/></g><line fill="none" stroke="#354F65" stroke-linecap="round" stroke-linejoin="round" stroke-miterlimit="10" stroke-width="13" x1="364.5" x2="430.908" y1="359.059" y2="359.059"/></svg>