<?xml version="1.0" ?><!DOCTYPE svg  PUBLIC '-//W3C//DTD SVG 1.1//EN'  'http://www.w3.org/Graphics/SVG/1.1/DTD/svg11.dtd'><svg enable-background="new 0 0 512 512" height="512px" id="Layer_1" version="1.1" viewBox="0 0 512 512" width="512px" xml:space="preserve" xmlns="http://www.w3.org/2000/svg" xmlns:xlink="http://www.w3.org/1999/xlink"><circle cx="289.681" cy="382.756" fill="#D8EAEF" r="18.968"/><circle cx="128.309" cy="472.381" fill="#D8EAEF" r="18.968"/><circle cx="241.611" cy="458.785" fill="#D8EAEF" r="18.968"/><circle cx="354.588" cy="447.662" fill="#D8EAEF" r="18.969"/><path d="M349.959,151.049c-5.997-62.967-61.931-112.316-130.038-112.316c-72.114,0-130.567,55.305-130.567,123.543  c0,6.617,0.551,13.117,1.61,19.445l0,0c-45.345,5.346-80.561,44.914-80.561,92.914c0,51.639,40.775,93.514,91.075,93.514H131.5  l102.25-37l140.433,37h61.153c36.605,0,66.261-26.482,66.261-59.162c0-29.539-24.246-54.033-55.944-58.449l0,0  c0-51.656-40.582-99.615-90.882-99.615C353.156,150.922,351.541,150.965,349.959,151.049" fill="#D8EAEF"/><path d="M301.095,151.049c-5.135-62.967-52.467-113.32-110.625-109.16C153.889,44.504,89.354,94.037,89.354,162.275  c0,6.617,1.61,19.445,1.61,19.445c-42.076,3.783-80.561,44.914-80.561,92.914c0,51.639,34.907,93.514,77.968,93.514h285.811  c31.34,0,56.727-26.482,56.727-59.162c0-29.539-20.756-54.033-47.893-58.449l0,0c0-51.656-34.743-99.615-77.805-99.615  C303.831,150.922,302.448,150.965,301.095,151.049c-22.808,1.434-43.016,14.605-56.507,34.576" fill="#FFFFFF"/><path d="  M339.5,368.148h95.836c36.605,0,66.261-26.482,66.261-59.162c0-29.539-24.246-54.033-55.944-58.449l0,0  c0-51.656-45.394-99.488-95.693-99.488c-1.614,0,1.582-0.084,0,0c-26.641,1.434-50.246,14.605-66.005,34.576" fill="none" stroke="#354F65" stroke-linecap="round" stroke-linejoin="round" stroke-miterlimit="10" stroke-width="13"/><path d="  M349.959,151.049c-5.997-62.967-61.931-112.316-130.038-112.316c-72.114,0-130.567,55.305-130.567,123.543  c0,6.617,0.551,13.117,1.61,19.445l0,0c-45.345,5.346-80.561,44.914-80.561,92.914c0,51.639,40.775,93.514,91.075,93.514H131.5" fill="none" stroke="#354F65" stroke-linecap="round" stroke-linejoin="round" stroke-miterlimit="10" stroke-width="13"/><g><path d="   M141.639,19.254" fill="none" stroke="#D8EAEF" stroke-linecap="round" stroke-linejoin="round" stroke-miterlimit="10" stroke-width="7"/></g><circle cx="177.777" cy="396.35" fill="#D8EAEF" r="18.968"/><g><line fill="none" stroke="#354F65" stroke-linecap="round" stroke-linejoin="round" stroke-miterlimit="10" stroke-width="11" x1="143.217" x2="113.4" y1="487.289" y2="457.473"/><line fill="none" stroke="#354F65" stroke-linecap="round" stroke-linejoin="round" stroke-miterlimit="10" stroke-width="11" x1="107.944" x2="148.674" y1="477.838" y2="466.926"/><line fill="none" stroke="#354F65" stroke-linecap="round" stroke-linejoin="round" stroke-miterlimit="10" stroke-width="11" x1="133.766" x2="122.853" y1="452.018" y2="492.746"/></g><g><line fill="none" stroke="#354F65" stroke-linecap="round" stroke-linejoin="round" stroke-miterlimit="10" stroke-width="11" x1="255.121" x2="225.305" y1="473.695" y2="443.879"/><line fill="none" stroke="#354F65" stroke-linecap="round" stroke-linejoin="round" stroke-miterlimit="10" stroke-width="11" x1="219.849" x2="260.579" y1="464.244" y2="453.33"/><line fill="none" stroke="#354F65" stroke-linecap="round" stroke-linejoin="round" stroke-miterlimit="10" stroke-width="11" x1="245.67" x2="234.757" y1="438.422" y2="479.152"/></g><g><line fill="none" stroke="#354F65" stroke-linecap="round" stroke-linejoin="round" stroke-miterlimit="10" stroke-width="11" x1="192.685" x2="162.868" y1="411.258" y2="381.441"/><line fill="none" stroke="#354F65" stroke-linecap="round" stroke-linejoin="round" stroke-miterlimit="10" stroke-width="11" x1="157.412" x2="198.143" y1="401.807" y2="390.895"/><line fill="none" stroke="#354F65" stroke-linecap="round" stroke-linejoin="round" stroke-miterlimit="10" stroke-width="11" x1="183.233" x2="172.32" y1="375.986" y2="416.715"/></g><g><line fill="none" stroke="#354F65" stroke-linecap="round" stroke-linejoin="round" stroke-miterlimit="10" stroke-width="11" x1="304.589" x2="274.772" y1="397.664" y2="367.848"/><line fill="none" stroke="#354F65" stroke-linecap="round" stroke-linejoin="round" stroke-miterlimit="10" stroke-width="11" x1="269.316" x2="310.047" y1="388.213" y2="377.299"/><line fill="none" stroke="#354F65" stroke-linecap="round" stroke-linejoin="round" stroke-miterlimit="10" stroke-width="11" x1="295.138" x2="284.225" y1="362.391" y2="403.121"/></g><g><line fill="none" stroke="#354F65" stroke-linecap="round" stroke-linejoin="round" stroke-miterlimit="10" stroke-width="11" x1="369.496" x2="339.68" y1="462.57" y2="432.754"/><line fill="none" stroke="#354F65" stroke-linecap="round" stroke-linejoin="round" stroke-miterlimit="10" stroke-width="11" x1="334.223" x2="374.953" y1="453.119" y2="442.207"/><line fill="none" stroke="#354F65" stroke-linecap="round" stroke-linejoin="round" stroke-miterlimit="10" stroke-width="11" x1="360.045" x2="349.132" y1="427.297" y2="468.027"/></g></svg>