<?xml version="1.0" ?><!DOCTYPE svg  PUBLIC '-//W3C//DTD SVG 1.1//EN'  'http://www.w3.org/Graphics/SVG/1.1/DTD/svg11.dtd'><svg enable-background="new 0 0 512 512" height="512px" id="Layer_1" version="1.1" viewBox="0 0 512 512" width="512px" xml:space="preserve" xmlns="http://www.w3.org/2000/svg" xmlns:xlink="http://www.w3.org/1999/xlink"><path d="M349.57,250.045c-5.997-62.967-61.931-112.316-130.038-112.316c-72.114,0-130.567,55.304-130.567,123.543  c0,6.617,0.551,13.117,1.61,19.445l0,0c-45.345,5.346-80.561,44.913-80.561,92.914c0,51.638,40.775,93.513,91.075,93.513h333.857  c36.605,0,66.261-26.481,66.261-59.162c0-29.539-24.246-54.032-55.944-58.448l0,0c0-51.656-40.582-99.616-90.882-99.616  C352.768,249.917,351.152,249.961,349.57,250.045" fill="#D8EAEF"/><path d="M300.706,250.045c-5.135-62.967-52.467-113.32-110.625-109.161C153.5,143.5,88.966,193.032,88.966,261.271  c0,6.617,1.61,19.445,1.61,19.445C48.5,284.5,10.015,325.63,10.015,373.631c0,51.638,34.907,93.513,77.968,93.513h285.811  c31.34,0,56.727-26.481,56.727-59.162c0-29.539-20.756-54.032-47.893-58.448l0,0c0-51.656-34.743-99.616-77.805-99.616  C303.442,249.917,302.06,249.961,300.706,250.045c-22.808,1.433-43.016,14.604-56.507,34.575" fill="#FFFFFF"/><path d="  M349.57,250.045c-5.997-62.967-61.931-112.316-130.038-112.316c-72.114,0-130.567,55.304-130.567,123.543  c0,6.617,0.551,13.117,1.61,19.445l0,0c-45.345,5.346-80.561,44.913-80.561,92.914c0,51.638,40.775,93.513,91.075,93.513h333.857  c36.605,0,66.261-26.481,66.261-59.162c0-29.539-24.246-54.032-55.944-58.448l0,0C445.264,297.877,399.87,250.045,349.57,250.045  C347.956,250.045,351.152,249.961,349.57,250.045c-26.641,1.433-50.246,14.604-66.005,34.575" fill="none" stroke="#354F65" stroke-linecap="round" stroke-linejoin="round" stroke-miterlimit="10" stroke-width="13"/><g><line fill="none" stroke="#354F65" stroke-linecap="round" stroke-linejoin="round" stroke-miterlimit="10" stroke-width="7" x1="26.5" x2="47" y1="210.5" y2="210.5"/><line fill="none" stroke="#354F65" stroke-linecap="round" stroke-linejoin="round" stroke-miterlimit="10" stroke-width="7" x1="36.75" x2="36.75" y1="220.75" y2="200.25"/></g><g><line fill="none" stroke="#D8EAEF" stroke-linecap="round" stroke-linejoin="round" stroke-miterlimit="10" stroke-width="7" x1="131" x2="151.5" y1="108" y2="108"/><line fill="none" stroke="#D8EAEF" stroke-linecap="round" stroke-linejoin="round" stroke-miterlimit="10" stroke-width="7" x1="141.25" x2="141.25" y1="118.25" y2="97.75"/></g><g><line fill="none" stroke="#D8EAEF" stroke-linecap="round" stroke-linejoin="round" stroke-miterlimit="10" stroke-width="7" x1="439.5" x2="460" y1="151" y2="151"/><line fill="none" stroke="#D8EAEF" stroke-linecap="round" stroke-linejoin="round" stroke-miterlimit="10" stroke-width="7" x1="449.75" x2="449.75" y1="161.25" y2="140.75"/></g><g><line fill="none" stroke="#354F65" stroke-linecap="round" stroke-linejoin="round" stroke-miterlimit="10" stroke-width="7" x1="448.5" x2="469" y1="268" y2="268"/><line fill="none" stroke="#354F65" stroke-linecap="round" stroke-linejoin="round" stroke-miterlimit="10" stroke-width="7" x1="458.75" x2="458.75" y1="278.25" y2="257.75"/></g><path d="M412.881,43.308c-22.223,23.661-29.339,61.234-16.795,99.672c12.955,39.707,41.99,66.799,75.078,71.564  c-47.454,15.663-100.183-9.5-115.846-56.953C339.656,110.137,365.427,58.97,412.881,43.308z" fill="#D8EAEF"/><path d="M392.713,52.837c-22.223,23.661-31.171,51.706-18.627,90.144c12.955,39.708,41.99,66.799,75.078,71.565  C410.949,232.5,366.5,197.5,353.318,160.591C339.997,123.292,350.734,77.25,392.713,52.837z" fill="#FFFFFF"/><path d="  M412.881,43.308c-22.223,23.662-29.339,61.235-16.795,99.673c12.955,39.706,41.99,66.798,75.078,71.563  c-47.454,15.664-100.183-9.499-115.846-56.953C339.656,110.138,365.427,58.971,412.881,43.308z" fill="none" stroke="#354F65" stroke-linecap="round" stroke-linejoin="round" stroke-miterlimit="10" stroke-width="13"/><g><line fill="none" stroke="#354F65" stroke-linecap="round" stroke-linejoin="round" stroke-miterlimit="10" stroke-width="7" x1="273.089" x2="293.589" y1="87.5" y2="87.5"/><line fill="none" stroke="#354F65" stroke-linecap="round" stroke-linejoin="round" stroke-miterlimit="10" stroke-width="7" x1="283.339" x2="283.339" y1="97.75" y2="77.25"/></g></svg>