<?xml version="1.0" ?><svg viewBox="0 0 64 64" xmlns="http://www.w3.org/2000/svg"><defs><style>.a{fill:#ffed09;}.a,.b{stroke:#d38509;}.a,.b,.c,.f{stroke-linecap:round;stroke-width:2px;}.a,.b,.c{stroke-linejoin:round;}.b,.f{fill:none;}.c{fill:#e5e4e4;stroke:#818180;}.d{fill:#f7f8f9;}.e{fill:#1c1c1c;}.f{stroke:#1c1c1c;stroke-miterlimit:10;}</style></defs><title/><circle class="a" cx="40" cy="25" r="13"/><line class="b" x1="40" x2="40" y1="8" y2="3"/><line class="b" x1="31.5" x2="29" y1="10.28" y2="5.95"/><line class="b" x1="25.28" x2="20.95" y1="16.5" y2="14"/><line class="b" x1="48.5" x2="51" y1="39.72" y2="44.05"/><line class="b" x1="54.72" x2="59.05" y1="33.5" y2="36"/><line class="b" x1="57" x2="62" y1="25" y2="25"/><line class="b" x1="54.72" x2="59.05" y1="16.5" y2="14"/><line class="b" x1="48.5" x2="51" y1="10.28" y2="5.95"/><path class="c" d="M39.78,39.57H37.34a14.1,14.1,0,1,0-28,.32A7.83,7.83,0,0,0,11.6,55.23H39.78a7.83,7.83,0,0,0,0-15.66Z"/><path class="d" d="M36,26h8a0,0,0,0,1,0,0v0a4,4,0,0,1-4,4h0a4,4,0,0,1-4-4v0a0,0,0,0,1,0,0Z"/><path class="e" d="M19,41h8a0,0,0,0,1,0,0v0a4,4,0,0,1-4,4h0a4,4,0,0,1-4-4v0a0,0,0,0,1,0,0Z"/><circle class="e" cx="35" cy="21" r="2"/><circle class="e" cx="44" cy="21" r="2"/><path class="f" d="M16,36a2,2,0,0,1,4,0"/><path class="f" d="M26,36a2,2,0,0,1,4,0"/></svg>