<?xml version="1.0" ?><svg style="enable-background:new 0 0 64 64;" version="1.1" viewBox="0 0 64 64" xml:space="preserve" xmlns="http://www.w3.org/2000/svg" xmlns:xlink="http://www.w3.org/1999/xlink"><g id="Layer_2"/><g id="Layer_3"/><g id="Layer_4"/><g id="Layer_5"/><g id="Layer_6"/><g id="Layer_7"/><g id="Layer_8"/><g id="Layer_9"/><g id="Layer_10"/><g id="Layer_11"/><g id="Layer_12"/><g id="Layer_13"/><g id="Layer_15"/><g id="Layer_16"/><g id="Layer_17"/><g id="Layer_18"/><g id="Layer_19"/><g id="Layer_20"/><g id="Layer_21"><g><path d="M32,0C14.4,0,0,14.4,0,32s14.4,32,32,32s32-14.4,32-32S49.6,0,32,0z M32,61.8C15.6,61.8,2.2,48.4,2.2,32S15.6,2.2,32,2.2    S61.8,15.6,61.8,32S48.4,61.8,32,61.8z"/><path d="M32,5.9C17.6,5.9,5.9,17.6,5.9,32S17.6,58.1,32,58.1S58.1,46.4,58.1,32S46.4,5.9,32,5.9z M33.1,55.8v-3.1    c0-0.6-0.5-1.1-1.1-1.1s-1.1,0.5-1.1,1.1v3.1C18.6,55.3,8.7,45.4,8.2,33.1h3.1c0.6,0,1.1-0.5,1.1-1.1s-0.5-1.1-1.1-1.1H8.2    C8.7,18.6,18.6,8.7,30.9,8.2v3.1c0,0.6,0.5,1.1,1.1,1.1s1.1-0.5,1.1-1.1V8.2c12.3,0.6,22.2,10.5,22.7,22.7h-3.1    c-0.6,0-1.1,0.5-1.1,1.1s0.5,1.1,1.1,1.1h3.1C55.3,45.4,45.4,55.3,33.1,55.8z"/><path d="M32,28.3c-2,0-3.7,1.6-3.7,3.7s1.6,3.7,3.7,3.7s3.7-1.6,3.7-3.7S34,28.3,32,28.3z M32,33.5c-0.8,0-1.5-0.7-1.5-1.5    s0.7-1.5,1.5-1.5s1.5,0.7,1.5,1.5S32.8,33.5,32,33.5z"/><path d="M49.6,31l-11.9-4.6l-4.6-12c-0.2-0.4-0.6-0.7-1-0.7c-0.5,0-0.9,0.3-1,0.7l-4.6,12l-12,4.6c-0.4,0.2-0.7,0.6-0.7,1    c0,0.5,0.3,0.9,0.7,1l12,4.6L31,49.6c0.2,0.4,0.6,0.7,1,0.7h0c0.5,0,0.9-0.3,1-0.7l4.6-12l12-4.6c0.4-0.2,0.7-0.6,0.7-1    C50.3,31.6,50,31.1,49.6,31z M36.4,35.7c-0.3,0.1-0.5,0.3-0.6,0.6L32,46.1l-3.7-9.7c-0.1-0.3-0.3-0.5-0.6-0.6L17.9,32l9.8-3.7    c0.3-0.1,0.5-0.3,0.6-0.6l3.7-9.8l3.7,9.8c0.1,0.3,0.3,0.5,0.6,0.6l9.7,3.7L36.4,35.7z"/></g></g><g id="Layer_22"/><g id="Layer_23"/><g id="Layer_24"/><g id="Layer_25"/><g id="Layer_26"/><g id="Layer_27"/></svg>