<?xml version="1.0" ?><svg height="24" id="svg8" version="1.1" viewBox="0 0 24 24" width="24" xmlns="http://www.w3.org/2000/svg" xmlns:cc="http://creativecommons.org/ns#" xmlns:dc="http://purl.org/dc/elements/1.1/" xmlns:rdf="http://www.w3.org/1999/02/22-rdf-syntax-ns#" xmlns:svg="http://www.w3.org/2000/svg"><defs id="defs2"/><g id="g2479" style="display:inline" transform="translate(-2.0006575e-5,-290.65065)"><path d="m 12,292.65039 c -4.72258,0 -8.57226,3.85246 -8.57227,8.57813 5.3e-4,0.009 10e-4,0.0182 0.002,0.0273 0.1051,3.813 2.17092,6.37132 4.6875,8.16406 2.27444,1.62024 3.08789,2.80469 3.08789,2.80469 0.43429,0.61999 1.37323,0.55147 1.7129,-0.125 0.67719,-1.01071 1.95495,-2.05941 2.89843,-2.68555 2.69715,-1.77126 4.75605,-4.37363 4.75586,-8.18554 0,-4.72567 -3.84968,-8.57813 -8.57226,-8.57813 z m 0,2 c 3.64063,0 6.57227,2.93227 6.57227,6.57813 1.5e-4,3.13308 -1.47904,4.95431 -3.85352,6.51367 -1.33452,0.87639 -2.20825,1.69855 -2.76172,2.32422 -0.58151,-0.59802 -1.45566,-1.40344 -2.67969,-2.27539 -2.23265,-1.59048 -3.75579,-3.43597 -3.84765,-6.57422 0.007,-3.64011 2.93381,-6.56641 6.57031,-6.56641 z" id="path2461" style="color:#000000;font-style:normal;font-variant:normal;font-weight:normal;font-stretch:normal;font-size:medium;line-height:normal;font-family:sans-serif;font-variant-ligatures:normal;font-variant-position:normal;font-variant-caps:normal;font-variant-numeric:normal;font-variant-alternates:normal;font-variant-east-asian:normal;font-feature-settings:normal;font-variation-settings:normal;text-indent:0;text-align:start;text-decoration:none;text-decoration-line:none;text-decoration-style:solid;text-decoration-color:#000000;letter-spacing:normal;word-spacing:normal;text-transform:none;writing-mode:lr-tb;direction:ltr;text-orientation:mixed;dominant-baseline:auto;baseline-shift:baseline;text-anchor:start;white-space:normal;shape-padding:0;shape-margin:0;inline-size:0;clip-rule:nonzero;display:inline;overflow:visible;visibility:visible;opacity:1;isolation:auto;mix-blend-mode:normal;color-interpolation:sRGB;color-interpolation-filters:linearRGB;solid-color:#000000;solid-opacity:1;vector-effect:none;fill:#000000;fill-opacity:1;fill-rule:nonzero;stroke:none;stroke-linecap:round;stroke-linejoin:round;stroke-miterlimit:4;stroke-dasharray:none;stroke-dashoffset:0;stroke-opacity:1;color-rendering:auto;image-rendering:auto;shape-rendering:auto;text-rendering:auto;enable-background:accumulate;stop-color:#000000;stop-opacity:1"/><path d="m 12,297.22656 c -2.19786,0 -3.99999,1.80349 -4,4.00196 0,2.19846 1.80214,4.0039 4,4.0039 2.19786,0 4,-1.80544 4,-4.0039 0,-2.19847 -1.80214,-4.00196 -4,-4.00196 z m 0,2 c 1.11585,0 2,0.88324 2,2.00196 0,1.11872 -0.88415,2.0039 -2,2.0039 -1.11585,0 -2,-0.88518 -2,-2.0039 0,-1.11872 0.88415,-2.00196 2,-2.00196 z" id="path2469" style="color:#000000;font-style:normal;font-variant:normal;font-weight:normal;font-stretch:normal;font-size:medium;line-height:normal;font-family:sans-serif;font-variant-ligatures:normal;font-variant-position:normal;font-variant-caps:normal;font-variant-numeric:normal;font-variant-alternates:normal;font-variant-east-asian:normal;font-feature-settings:normal;font-variation-settings:normal;text-indent:0;text-align:start;text-decoration:none;text-decoration-line:none;text-decoration-style:solid;text-decoration-color:#000000;letter-spacing:normal;word-spacing:normal;text-transform:none;writing-mode:lr-tb;direction:ltr;text-orientation:mixed;dominant-baseline:auto;baseline-shift:baseline;text-anchor:start;white-space:normal;shape-padding:0;shape-margin:0;inline-size:0;clip-rule:nonzero;display:inline;overflow:visible;visibility:visible;opacity:1;isolation:auto;mix-blend-mode:normal;color-interpolation:sRGB;color-interpolation-filters:linearRGB;solid-color:#000000;solid-opacity:1;vector-effect:none;fill:#000000;fill-opacity:1;fill-rule:nonzero;stroke:none;stroke-linecap:round;stroke-linejoin:round;stroke-miterlimit:4;stroke-dasharray:none;stroke-dashoffset:0;stroke-opacity:1;color-rendering:auto;image-rendering:auto;shape-rendering:auto;text-rendering:auto;enable-background:accumulate;stop-color:#000000;stop-opacity:1"/></g></svg>