<?xml version="1.0" ?><svg id="Layer_1" style="enable-background:new 0 0 91 91;" version="1.1" viewBox="0 0 91 91" xml:space="preserve" xmlns="http://www.w3.org/2000/svg" xmlns:xlink="http://www.w3.org/1999/xlink"><style type="text/css">
	.st0{fill:#4E7A9E;}
</style><g><g><g><g><path class="st0" d="M32,20.3c-2.8,2.5-5.5,5.7-8.5,8c-2.7-2.6-9.3-11.6-11.1-8.1c-0.9,1.8,1,3.9,2,5.2c1.6,2.2,3.3,4.2,5,6.3      c1.6,2,3.6,3.7,6.1,2.1c3.9-2.5,7.5-6,11-8.9C39.8,22.3,35.1,17.5,32,20.3z"/><path class="st0" d="M71,20.3c-2.8,2.5-5.5,5.7-8.5,8c-2.7-2.6-9.3-11.6-11.1-8.1c-0.9,1.8,1,3.9,2,5.2c1.6,2.2,3.3,4.2,5,6.3      c1.6,2,3.6,3.7,6.1,2.1c3.9-2.5,7.5-6,11-8.9C78.9,22.3,74.2,17.5,71,20.3z"/><path class="st0" d="M66.2,40.4c-0.7-3.2-6-2.5-5.7,0.8c0,0.6,0.1,1.1,0.2,1.7c-1.6,3-2.5,6.7-3.6,9.7      c-1.4,3.8-2.6,7.6-3.2,11.6c-1,6-0.6,14.6,7.1,15.5c7.6,0.9,11.4-7.4,11.3-13.8c-0.1-4.1-1.4-8.2-2.6-12.1      C68.3,49.3,67.2,44.9,66.2,40.4z M66.7,68.9c-0.6,2.7-2.7,5.8-5.9,5.3c-5.7-0.9-1.7-13.2-0.8-16.3c0.7-2.3,1.7-4.7,2.5-7.3      c0.9,2.8,2,5.5,3,8.3C66.6,62.1,67.5,65.6,66.7,68.9z"/></g></g></g></g></svg>