<?xml version="1.0" ?><svg enable-background="new 0 0 32 32" id="Filled_Outline" version="1.1" viewBox="0 0 32 32" xml:space="preserve" xmlns="http://www.w3.org/2000/svg" xmlns:xlink="http://www.w3.org/1999/xlink"><title/><desc/><g><path d="M25,20c0-4.971-4.029-9-9-9s-9,4.029-9,9H25z" fill="#F2B035"/><g><rect fill="#1A1A1A" height="2" width="11" x="19" y="23"/><rect fill="#1A1A1A" height="2" width="11" x="2" y="23"/><path d="M25.949,19c-0.504-5.046-4.773-9-9.949-9c-5.177,0-9.446,3.954-9.949,9H0v2h13v-2H8.069    c0.495-3.94,3.859-7,7.931-7s7.436,3.06,7.931,7H19v2h13v-2H25.949z" fill="#1A1A1A"/><rect fill="#1A1A1A" height="2" width="7" x="4" y="27"/><rect fill="#1A1A1A" height="2" width="7" x="21" y="27"/><path d="M17,28.586V19h-2v9.586l-1.293-1.293l-1.414,1.414l3,3C15.488,31.902,15.744,32,16,32    s0.512-0.098,0.707-0.293l3-3l-1.414-1.414L17,28.586z" fill="#1A1A1A"/><rect fill="#1A1A1A" height="2" width="2" x="15"/><rect fill="#1A1A1A" height="4" transform="matrix(0.7072 -0.707 0.707 0.7072 -5.3548 7.2714)" width="2" x="5.101" y="8.1"/><rect fill="#1A1A1A" height="4" transform="matrix(0.3908 -0.9205 0.9205 0.3908 -11.4768 11.7176)" width="2" x="2.114" y="12.529"/><rect fill="#1A1A1A" height="2" transform="matrix(0.7072 -0.707 0.707 0.7072 -3.8901 3.7357)" width="2" x="1.566" y="5.565"/><rect fill="#1A1A1A" height="2" transform="matrix(0.7071 -0.7071 0.7071 0.7071 0.4436 21.2716)" width="4.001" x="23.899" y="9.1"/><rect fill="#1A1A1A" height="2" transform="matrix(0.7071 -0.7071 0.7071 0.7071 3.9792 22.7361)" width="2" x="28.435" y="5.565"/><rect fill="#1A1A1A" height="4" width="2" x="15" y="4"/><rect fill="#1A1A1A" height="4" transform="matrix(0.9272 -0.3747 0.3747 0.9272 -1.8464 4.541)" width="2" x="9.756" y="5.019"/><rect fill="#1A1A1A" height="2" transform="matrix(0.9205 -0.3907 0.3907 0.9205 -3.3805 12.4398)" width="4.001" x="26.886" y="13.529"/><rect fill="#1A1A1A" height="1.999" transform="matrix(0.3747 -0.9272 0.9272 0.3747 6.7766 24.086)" width="4" x="19.244" y="6.02"/></g></g></svg>