<?xml version="1.0" ?><svg enable-background="new 0 0 32 32" id="Filled_Outline" version="1.1" viewBox="0 0 32 32" xml:space="preserve" xmlns="http://www.w3.org/2000/svg" xmlns:xlink="http://www.w3.org/1999/xlink"><title/><desc/><g><g><path d="M27,25c0,3.721-3.399,6.658-7.257,5.872c-2.274-0.464-4.12-2.293-4.603-4.563    c-0.485-2.275,0.333-4.415,1.861-5.769V5c0-2.209,1.791-4,4-4h0c2.209,0,4,1.791,4,4v15.54C26.23,21.63,27,23.23,27,25z" fill="#C9F9FB"/><path d="M22,22.184V19h-2v3.184c-1.163,0.413-2,1.512-2,2.816c0,1.657,1.343,3,3,3s3-1.343,3-3    C24,23.696,23.163,22.597,22,22.184z" fill="#D62144"/></g><g><path d="M26,20.111V5c0-2.757-2.243-5-5-5s-5,2.243-5,5v15.11c-1.658,1.674-2.345,4.036-1.839,6.408    c0.564,2.649,2.728,4.793,5.382,5.334c0.482,0.098,0.967,0.146,1.446,0.146c1.611,0,3.173-0.545,4.434-1.575    C27.061,29.086,28,27.109,28,25C28,23.162,27.276,21.405,26,20.111z M24.157,28.875c-1.167,0.954-2.701,1.326-4.215,1.017    c-1.887-0.384-3.424-1.908-3.825-3.791c-0.386-1.813,0.191-3.612,1.546-4.812C17.877,21.099,18,20.826,18,20.54V5    c0-1.654,1.346-3,3-3s3,1.346,3,3v15.54c0,0.286,0.123,0.559,0.337,0.749C25.394,22.225,26,23.578,26,25    C26,26.506,25.328,27.918,24.157,28.875z" fill="#1A1A1A"/><polygon fill="#1A1A1A" points="15.707,18.293 14,16.586 14,3.414 15.707,1.707 14.293,0.293 13,1.586 11.707,0.293 10.293,1.707     12,3.414 12,7.586 10,5.586 10,3 8,3 8,5 6,5 6,7 8.586,7 10.586,9 5.414,9 3.707,7.293 2.293,8.707 3.586,10 2.293,11.293     3.707,12.707 5.414,11 10.586,11 8.586,13 6,13 6,15 8,15 8,17 10,17 10,14.414 12,12.414 12,16.586 10.293,18.293 11.707,19.707     13,18.414 14.293,19.707   "/></g></g></svg>