<?xml version="1.0" ?><svg enable-background="new 0 0 32 32" id="Filled_Outline" version="1.1" viewBox="0 0 32 32" xml:space="preserve" xmlns="http://www.w3.org/2000/svg" xmlns:xlink="http://www.w3.org/1999/xlink"><title/><desc/><g><g><path d="M25,25c0,3.721-3.399,6.658-7.257,5.872c-2.274-0.464-4.12-2.293-4.603-4.563    c-0.485-2.275,0.333-4.415,1.861-5.769V5c0-2.209,1.791-4,4-4h0c2.209,0,4,1.791,4,4v15.54C24.23,21.63,25,23.23,25,25z" fill="#C9F9FB"/><path d="M4,5c1,4-1,5-1,8c0,3.314,2.686,6,6,6s6-2.686,6-6C15,8,9,1,9,1c0.333,2.667,0,5.333-1,8    C6.667,6.333,5.333,5,4,5z" fill="#D62144"/><path d="M20,22.184V6h-2v16.184c-1.163,0.413-2,1.512-2,2.816c0,1.657,1.343,3,3,3s3-1.343,3-3    C22,23.696,21.163,22.597,20,22.184z" fill="#D62144"/><path d="M9,18.156c-2.206,0-4-1.794-4-4c0-0.361,0.189-0.902,0.41-1.529c0.2-0.573,0.429-1.222,0.601-1.966    c0.065,0.124,0.132,0.253,0.2,0.39l2.051,4.103l1.611-4.295C10.229,9.91,10.509,8.956,10.713,8C11.945,10.06,13,12.365,13,14.156    C13,16.362,11.206,18.156,9,18.156z" fill="#FFF3AE"/></g><g><path d="M24,20.111V5c0-2.757-2.243-5-5-5s-5,2.243-5,5v1.574c-1.766-3.31-4.084-6.042-4.241-6.225    C9.473,0.015,9-0.092,8.595,0.085C8.192,0.264,7.953,0.686,8.008,1.124C8.231,2.911,8.131,4.718,7.711,6.52    C6.538,4.828,5.313,4,4,4C3.692,4,3.401,4.142,3.212,4.385S2.955,4.944,3.03,5.243C3.556,7.346,3.159,8.436,2.7,9.698    C2.372,10.601,2,11.624,2,13c0,3.86,3.14,7,7,7c1.958,0,3.728-0.81,5-2.11v2.22c-1.659,1.674-2.344,4.036-1.838,6.408    c0.564,2.649,2.727,4.793,5.381,5.334c0.482,0.098,0.967,0.146,1.446,0.146c1.611,0,3.173-0.545,4.434-1.575    C25.061,29.086,26,27.109,26,25C26,23.162,25.276,21.405,24,20.111z M9,18c-2.757,0-5-2.243-5-5c0-1.024,0.269-1.763,0.58-2.618    c0.367-1.008,0.77-2.115,0.69-3.701c0.508,0.5,1.126,1.348,1.836,2.767c0.178,0.355,0.54,0.571,0.947,0.551    C8.45,9.978,8.797,9.724,8.937,9.351c0.656-1.75,1.042-3.519,1.153-5.285C11.774,6.45,14,10.14,14,13C14,15.757,11.757,18,9,18z     M22.157,28.875c-1.168,0.954-2.7,1.326-4.215,1.017c-1.887-0.384-3.424-1.908-3.825-3.791c-0.387-1.813,0.191-3.612,1.545-4.812    C15.877,21.099,16,20.826,16,20.54V5c0-1.654,1.346-3,3-3s3,1.346,3,3v15.54c0,0.286,0.123,0.559,0.337,0.749    C23.394,22.225,24,23.578,24,25C24,26.506,23.328,27.918,22.157,28.875z" fill="#1A1A1A"/></g></g></svg>