<?xml version="1.0" ?><!DOCTYPE svg  PUBLIC '-//W3C//DTD SVG 1.1//EN'  'http://www.w3.org/Graphics/SVG/1.1/DTD/svg11.dtd'><svg enable-background="new 0 0 512 512" height="512px" id="Layer_1" version="1.1" viewBox="0 0 512 512" width="512px" xml:space="preserve" xmlns="http://www.w3.org/2000/svg" xmlns:xlink="http://www.w3.org/1999/xlink"><path d="M296.279,338.04c27.33,14.465,45.95,43.19,45.95,76.263c0,47.625-38.605,86.229-86.229,86.229  c-47.623,0-86.229-38.604-86.229-86.229c0-33.072,18.619-61.796,45.947-76.26l0.003,0.005V51.746  c0-22.245,18.035-40.278,40.279-40.278l0,0c22.246,0,40.278,18.033,40.278,40.278v286.302" fill="#D8EAEF"/><path d="M256,355.217c34.604,4.177,52.5,51.283,54,68.449c5.525,63.234-32,76.866-54,76.866  c-47.623,0-86.229-38.604-86.229-86.229c-0.001-33.072,18.618-61.796,45.947-76.26l0,0l0.003-286.297  c0-22.245-1.157-35.421,21.087-35.421l0,0c22.246,0,21.086,13.176,21.086,35.421v286.302" fill="#FFFFFF"/><path d="  M296.279,338.04c27.33,14.465,45.95,43.19,45.95,76.263c0,47.625-38.605,86.229-86.229,86.229  c-47.623,0-86.229-38.604-86.229-86.229c0-33.072,18.619-61.796,45.947-76.26l0.003,0.005V51.746  c0-22.245,18.035-40.278,40.279-40.278l0,0c22.246,0,40.278,18.033,40.278,40.278v286.302" fill="none" stroke="#354F65" stroke-linecap="round" stroke-linejoin="round" stroke-miterlimit="10" stroke-width="13"/><line fill="none" stroke="#354F65" stroke-linecap="round" stroke-linejoin="round" stroke-miterlimit="10" stroke-width="13" x1="215.721" x2="240.16" y1="126" y2="126"/><line fill="none" stroke="#354F65" stroke-linecap="round" stroke-linejoin="round" stroke-miterlimit="10" stroke-width="13" x1="215.721" x2="240.16" y1="160.5" y2="160.5"/><line fill="none" stroke="#354F65" stroke-linecap="round" stroke-linejoin="round" stroke-miterlimit="10" stroke-width="13" x1="215.721" x2="240.16" y1="195" y2="195"/><line fill="none" stroke="#354F65" stroke-linecap="round" stroke-linejoin="round" stroke-miterlimit="10" stroke-width="13" x1="215.721" x2="240.16" y1="229.5" y2="229.5"/><line fill="none" stroke="#354F65" stroke-linecap="round" stroke-linejoin="round" stroke-miterlimit="10" stroke-width="13" x1="215.721" x2="240.16" y1="264" y2="264"/></svg>