<?xml version="1.0" encoding="UTF-8"?>
<svg xmlns="http://www.w3.org/2000/svg" xmlns:xlink="http://www.w3.org/1999/xlink" width="61px" height="47px" viewBox="0 0 114 89" version="1.1">
<defs>
<clipPath id="clip1">
  <path d="M 1 0.378906 L 113.910156 0.378906 L 113.910156 39 L 1 39 Z M 1 0.378906 "/>
</clipPath>
<clipPath id="clip2">
  <path d="M 0.691406 55 L 82 55 L 82 88.988281 L 0.691406 88.988281 Z M 0.691406 55 "/>
</clipPath>
</defs>
<g id="surface1">
<g clip-path="url(#clip1)" clip-rule="nonzero">
<path style=" stroke:none;fill-rule:nonzero;fill:rgb(0%,0%,0%);fill-opacity:1;" d="M 44.542969 37.402344 C 32.171875 37.792969 19.800781 38.203125 7.425781 38.554688 C 6.007812 38.558594 4.589844 38.421875 3.199219 38.148438 C 2.964844 38.125 2.738281 38.050781 2.535156 37.929688 C 2.332031 37.8125 2.152344 37.652344 2.015625 37.460938 C 1.875 37.269531 1.777344 37.050781 1.730469 36.816406 C 1.679688 36.585938 1.679688 36.347656 1.726562 36.117188 C 1.847656 35.015625 2.601562 34.507812 3.621094 34.414062 C 5.464844 34.246094 7.3125 34.089844 9.15625 34.003906 C 17.988281 33.605469 26.816406 33.15625 35.652344 32.867188 C 48.617188 32.445312 61.589844 32.292969 74.546875 31.746094 C 82.355469 31.417969 90.210938 31.078125 97.789062 28.808594 C 99.566406 28.300781 101.285156 27.605469 102.917969 26.734375 C 105.421875 25.363281 106.800781 23.136719 107.265625 20.25 C 108.835938 10.535156 98.109375 3.949219 91.328125 7.039062 C 88.445312 8.347656 85.632812 9.570312 84.082031 12.597656 C 82.5625 15.554688 83.09375 17.933594 85.804688 19.886719 C 87.605469 21.1875 88.054688 22.132812 87.460938 23.363281 C 86.804688 24.714844 85.175781 25.171875 83.253906 24.542969 C 78.492188 22.992188 76.136719 17.824219 77.816406 12.519531 C 78.703125 9.664062 80.464844 7.160156 82.84375 5.363281 C 86.328125 2.714844 90.257812 1.019531 94.6875 0.804688 C 102.3125 0.429688 107.890625 4.113281 111.527344 10.445312 C 116.585938 19.246094 112.550781 29.578125 103.03125 33.0625 C 98.105469 34.828125 92.9375 35.835938 87.710938 36.050781 C 77.203125 36.566406 66.679688 36.796875 56.160156 37.152344 C 52.285156 37.28125 48.414062 37.417969 44.542969 37.558594 Z M 44.542969 37.402344 "/>
</g>
<g clip-path="url(#clip2)" clip-rule="nonzero">
<path style=" stroke:none;fill-rule:nonzero;fill:rgb(0%,0%,0%);fill-opacity:1;" d="M 31.972656 60.921875 C 21.878906 60.921875 12.875 60.929688 3.875 60.914062 C 1.832031 60.914062 0.929688 60.4375 0.808594 59.417969 C 0.671875 58.292969 1.667969 57.5 3.761719 57.359375 C 9.71875 56.949219 15.679688 56.433594 21.648438 56.304688 C 33.089844 56.054688 44.539062 55.964844 55.988281 55.957031 C 62.085938 55.953125 68.070312 56.925781 73.699219 59.421875 C 78.269531 61.449219 81.300781 64.867188 81.605469 70.003906 C 81.984375 76.339844 79.605469 81.59375 74.421875 85.378906 C 69.625 88.882812 64.386719 89.964844 58.683594 87.933594 C 50.429688 84.996094 50.699219 76.101562 54.648438 71.835938 C 55.800781 70.613281 57.125 69.566406 58.585938 68.738281 C 60.039062 67.90625 61.765625 68.328125 62.523438 69.308594 C 63.25 70.25 63.199219 71.722656 62.222656 73.085938 C 61.542969 73.945312 60.808594 74.757812 60.027344 75.527344 C 57.625 78.140625 58.320312 80.863281 61.644531 81.910156 C 68.210938 83.988281 76.707031 78.105469 75.507812 69.460938 C 75.191406 67.191406 73.566406 65.773438 71.554688 64.847656 C 67.265625 62.847656 62.625 61.726562 57.898438 61.550781 C 48.894531 61.238281 39.890625 61.101562 31.972656 60.921875 Z M 31.972656 60.921875 "/>
</g>
<path style=" stroke:none;fill-rule:nonzero;fill:rgb(0%,0%,0%);fill-opacity:1;" d="M 33.777344 77.582031 C 36.476562 77.691406 38.214844 79.207031 38.175781 81.40625 C 38.132812 83.804688 36.207031 85.5625 33.699219 85.496094 C 31.222656 85.433594 29.640625 83.738281 29.746094 81.273438 C 29.851562 78.742188 31.238281 77.472656 33.777344 77.582031 Z M 33.777344 77.582031 "/>
<path style=" stroke:none;fill-rule:nonzero;fill:rgb(0%,0%,0%);fill-opacity:1;" d="M 63.414062 10.210938 C 64.351562 10.195312 65.253906 10.546875 65.929688 11.191406 C 66.609375 11.835938 67.007812 12.726562 67.039062 13.664062 C 67.1875 16.101562 65.328125 18.277344 63.0625 18.3125 C 62.042969 18.324219 61.058594 17.929688 60.324219 17.21875 C 59.589844 16.511719 59.160156 15.539062 59.128906 14.511719 C 58.96875 12.160156 60.808594 10.316406 63.414062 10.210938 Z M 63.414062 10.210938 "/>
<path style=" stroke:none;fill-rule:nonzero;fill:rgb(0%,0%,0%);fill-opacity:1;" d="M 103.535156 50.597656 C 103.699219 48.503906 106.183594 46.46875 108.28125 46.710938 C 109.195312 46.855469 110.023438 47.335938 110.605469 48.058594 C 111.1875 48.78125 111.480469 49.699219 111.425781 50.625 C 111.203125 52.664062 108.953125 54.308594 106.621094 54.136719 C 106.183594 54.128906 105.75 54.027344 105.351562 53.839844 C 104.953125 53.652344 104.59375 53.382812 104.304688 53.050781 C 104.015625 52.71875 103.796875 52.328125 103.664062 51.90625 C 103.53125 51.484375 103.488281 51.039062 103.535156 50.597656 Z M 103.535156 50.597656 "/>
</g>
</svg>
